<svg width="257" height="40" viewBox="0 0 257 40" fill="none" xmlns="http://www.w3.org/2000/svg">
<path d="M0.84517 25H2.96307V20.4162C2.96307 19.571 3.5 19.0092 4.20597 19.0092C4.90199 19.0092 5.36932 19.4865 5.36932 20.2372V25H7.42259V20.3366C7.42259 19.5462 7.875 19.0092 8.6456 19.0092C9.32173 19.0092 9.82884 19.4318 9.82884 20.282V25H11.9418V19.8643C11.9418 18.2088 10.9574 17.2642 9.53551 17.2642C8.4169 17.2642 7.54688 17.8359 7.23367 18.7109H7.15412C6.91051 17.826 6.12997 17.2642 5.08097 17.2642C4.05185 17.2642 3.27131 17.8111 2.95312 18.7109H2.86364V17.3636H0.84517V25ZM15.7083 25.1442C16.8368 25.1442 17.5676 24.652 17.9405 23.9411H18.0002V25H20.0087V19.8494C20.0087 18.0298 18.4675 17.2642 16.7672 17.2642C14.9377 17.2642 13.7345 18.1392 13.4412 19.5312L15.4 19.6903C15.5442 19.1832 15.9966 18.8104 16.7573 18.8104C17.4781 18.8104 17.8908 19.1733 17.8908 19.7997V19.8295C17.8908 20.3217 17.3688 20.3864 16.0414 20.5156C14.53 20.6548 13.1727 21.1619 13.1727 22.8672C13.1727 24.3786 14.2516 25.1442 15.7083 25.1442ZM16.3148 23.6825C15.6635 23.6825 15.1962 23.3793 15.1962 22.7976C15.1962 22.201 15.6884 21.9077 16.4341 21.8033C16.8965 21.7386 17.6522 21.6293 17.9057 21.4602V22.2706C17.9057 23.071 17.2445 23.6825 16.3148 23.6825ZM25.0181 25.1491C27.0515 25.1491 28.3292 23.956 28.4286 22.201H26.43C26.3057 23.0163 25.7688 23.4737 25.0429 23.4737C24.0536 23.4737 23.4123 22.6435 23.4123 21.1818C23.4123 19.7401 24.0586 18.9148 25.0429 18.9148C25.8185 18.9148 26.3157 19.4268 26.43 20.1875H28.4286C28.3391 18.4226 27.0017 17.2642 25.0081 17.2642C22.6914 17.2642 21.2596 18.87 21.2596 21.2116C21.2596 23.5334 22.6665 25.1491 25.0181 25.1491ZM39.0969 19.9091C39.0969 16.5781 37.0287 14.679 34.3291 14.679C31.6147 14.679 29.5614 16.5781 29.5614 19.9091C29.5614 23.2251 31.6147 25.1392 34.3291 25.1392C37.0287 25.1392 39.0969 23.2401 39.0969 19.9091ZM36.9144 19.9091C36.9144 22.0668 35.8902 23.2351 34.3291 23.2351C32.7631 23.2351 31.7439 22.0668 31.7439 19.9091C31.7439 17.7514 32.7631 16.5831 34.3291 16.5831C35.8902 16.5831 36.9144 17.7514 36.9144 19.9091ZM46.131 17.7464H48.1942C48.1644 15.9318 46.6729 14.679 44.4058 14.679C42.1736 14.679 40.5379 15.9119 40.5479 17.7614C40.5429 19.2628 41.6019 20.1229 43.322 20.5355L44.4307 20.8139C45.5394 21.0824 46.1558 21.4006 46.1608 22.0866C46.1558 22.8324 45.4499 23.3395 44.3561 23.3395C43.2375 23.3395 42.4321 22.8224 42.3625 21.8033H40.2794C40.3341 24.0057 41.9101 25.1442 44.381 25.1442C46.8668 25.1442 48.3284 23.956 48.3334 22.0916C48.3284 20.3963 47.0507 19.4964 45.2808 19.0987L44.3661 18.88C43.4811 18.6761 42.7404 18.348 42.7553 17.6172C42.7553 16.9609 43.3369 16.4787 44.3909 16.4787C45.42 16.4787 46.0514 16.946 46.131 17.7464ZM50.8955 18.8253C51.5319 18.8253 52.0837 18.2933 52.0887 17.6321C52.0837 16.9808 51.5319 16.4489 50.8955 16.4489C50.2393 16.4489 49.6974 16.9808 49.7023 17.6321C49.6974 18.2933 50.2393 18.8253 50.8955 18.8253ZM50.8955 23.8168C51.5319 23.8168 52.0837 23.2848 52.0887 22.6236C52.0837 21.9723 51.5319 21.4403 50.8955 21.4403C50.2393 21.4403 49.6974 21.9723 49.7023 22.6236C49.6974 23.2848 50.2393 23.8168 50.8955 23.8168Z" fill="black"/>
<path d="M144.177 25H146.275L148.209 18.343H148.288L150.227 25H152.325L155.239 14.8182H152.887L151.202 21.9077H151.112L149.258 14.8182H147.244L145.385 21.8928H145.3L143.615 14.8182H141.263L144.177 25ZM156.267 25H158.385V17.3636H156.267V25ZM157.331 16.3793C157.962 16.3793 158.479 15.897 158.479 15.3054C158.479 14.7188 157.962 14.2365 157.331 14.2365C156.705 14.2365 156.187 14.7188 156.187 15.3054C156.187 15.897 156.705 16.3793 157.331 16.3793ZM162.115 20.5852C162.12 19.6009 162.707 19.0241 163.562 19.0241C164.412 19.0241 164.924 19.581 164.919 20.5156V25H167.037V20.1378C167.037 18.358 165.993 17.2642 164.402 17.2642C163.269 17.2642 162.448 17.821 162.105 18.7109H162.016V17.3636H159.997V25H162.115V20.5852ZM171.436 25.1243C172.669 25.1243 173.311 24.4134 173.604 23.777H173.693V25H175.782V14.8182H173.669V18.6463H173.604C173.321 18.0249 172.709 17.2642 171.431 17.2642C169.756 17.2642 168.339 18.5668 168.339 21.1918C168.339 23.7472 169.696 25.1243 171.436 25.1243ZM172.108 23.4389C171.068 23.4389 170.502 22.5142 170.502 21.1818C170.502 19.8594 171.059 18.9496 172.108 18.9496C173.137 18.9496 173.713 19.8196 173.713 21.1818C173.713 22.544 173.127 23.4389 172.108 23.4389ZM180.889 25.1491C183.206 25.1491 184.648 23.5632 184.648 21.2116C184.648 18.8452 183.206 17.2642 180.889 17.2642C178.572 17.2642 177.131 18.8452 177.131 21.2116C177.131 23.5632 178.572 25.1491 180.889 25.1491ZM180.899 23.5085C179.83 23.5085 179.283 22.5291 179.283 21.1967C179.283 19.8643 179.83 18.88 180.899 18.88C181.948 18.88 182.495 19.8643 182.495 21.1967C182.495 22.5291 181.948 23.5085 180.899 23.5085ZM187.256 25H189.493L190.805 20.1974H190.9L192.212 25H194.455L196.528 17.3636H194.39L193.227 22.4645H193.162L191.909 17.3636H189.806L188.573 22.4943H188.504L187.32 17.3636H185.178L187.256 25ZM203.927 19.5412C203.738 18.1342 202.605 17.2642 200.676 17.2642C198.722 17.2642 197.434 18.169 197.439 19.6406C197.434 20.7841 198.155 21.5249 199.647 21.8232L200.969 22.0866C201.635 22.2209 201.939 22.4645 201.949 22.8473C201.939 23.2997 201.446 23.6229 200.706 23.6229C199.95 23.6229 199.448 23.2997 199.319 22.6783L197.236 22.7876C197.434 24.2493 198.677 25.1491 200.701 25.1491C202.679 25.1491 204.096 24.1399 204.101 22.6335C204.096 21.5298 203.375 20.8686 201.894 20.5653L200.512 20.2869C199.801 20.1328 199.537 19.8892 199.542 19.5213C199.537 19.0639 200.054 18.7656 200.711 18.7656C201.446 18.7656 201.884 19.1683 201.988 19.6605L203.927 19.5412ZM206.589 19.7848C207.225 19.7848 207.777 19.2528 207.782 18.5916C207.777 17.9403 207.225 17.4084 206.589 17.4084C205.933 17.4084 205.391 17.9403 205.396 18.5916C205.391 19.2528 205.933 19.7848 206.589 19.7848ZM206.589 25.1293C207.225 25.1293 207.777 24.5973 207.782 23.9361C207.777 23.2848 207.225 22.7528 206.589 22.7528C205.933 22.7528 205.391 23.2848 205.396 23.9361C205.391 24.5973 205.933 25.1293 206.589 25.1293Z" fill="black"/>
<rect x="61.5" y="0.5" width="39" height="39" rx="3.5" fill="white" stroke="black"/>
<path d="M78.0146 25.2237C79.3072 25.2237 80.3512 24.1747 80.3562 22.892V21.9126H81.6538V22.892C81.6488 24.1747 82.6928 25.2237 83.9805 25.2237C85.2681 25.2237 86.3121 24.1747 86.3121 22.892C86.3121 21.5994 85.2681 20.5554 83.9805 20.5504H83.011V19.2578H83.9805C85.2681 19.2628 86.3121 18.2138 86.3121 16.9261C86.3121 15.6385 85.2681 14.5945 83.9805 14.5945C82.6928 14.5945 81.6488 15.6385 81.6538 16.9261V17.8956H80.3562V16.9261C80.3512 15.6385 79.3072 14.5945 78.0146 14.5945C76.7319 14.5945 75.6879 15.6385 75.6879 16.9261C75.6879 18.2138 76.7319 19.2628 78.0146 19.2578H78.9989V20.5504H78.0146C76.7319 20.5554 75.6879 21.5994 75.6879 22.892C75.6879 24.1747 76.7319 25.2237 78.0146 25.2237ZM78.0146 23.8615C77.4826 23.8615 77.0451 23.429 77.0451 22.892C77.0451 22.3501 77.4826 21.9176 78.0146 21.9126H78.9989V22.892C78.994 23.429 78.5565 23.8615 78.0146 23.8615ZM78.0146 17.8956C77.4826 17.9006 77.0451 17.468 77.0451 16.9261C77.0451 16.3892 77.4826 15.9567 78.0146 15.9567C78.5565 15.9567 78.994 16.3892 78.9989 16.9261V17.8956H78.0146ZM83.9805 23.8615C83.4435 23.8615 83.006 23.429 83.011 22.892V21.9126H83.9805C84.5174 21.9176 84.9549 22.3501 84.9549 22.892C84.9549 23.429 84.5174 23.8615 83.9805 23.8615ZM83.011 17.8956V16.9261C83.006 16.3892 83.4435 15.9567 83.9805 15.9567C84.5174 15.9567 84.9549 16.3892 84.9549 16.9261C84.9549 17.468 84.5174 17.9006 83.9805 17.8956H83.011ZM80.3562 20.5504V19.2578H81.6538V20.5504H80.3562Z" fill="black"/>
<rect x="217.5" y="0.5" width="39" height="39" rx="3.5" fill="white" stroke="black"/>
<path d="M234.113 18.3828C233.829 16.0312 232.05 14.679 229.693 14.679C227.003 14.679 224.95 16.5781 224.95 19.9091C224.95 23.2301 226.969 25.1392 229.693 25.1392C232.303 25.1392 233.879 23.4041 234.113 21.5298L231.935 21.5199C231.731 22.6087 230.876 23.2351 229.728 23.2351C228.182 23.2351 227.133 22.0866 227.133 19.9091C227.133 17.7912 228.167 16.5831 229.743 16.5831C230.921 16.5831 231.771 17.2642 231.935 18.3828H234.113ZM239.678 17.3636H238.242V15.5341H236.124V17.3636H235.08V18.9545H236.124V22.9318C236.114 24.4283 237.133 25.169 238.669 25.1044C239.216 25.0845 239.604 24.9751 239.818 24.9055L239.485 23.3295C239.38 23.3494 239.156 23.3991 238.958 23.3991C238.535 23.3991 238.242 23.2401 238.242 22.6534V18.9545H239.678V17.3636ZM241.058 25H243.176V20.6797C243.176 19.7401 243.862 19.0938 244.797 19.0938C245.09 19.0938 245.493 19.1435 245.692 19.2081V17.3288C245.503 17.2841 245.239 17.2543 245.025 17.2543C244.17 17.2543 243.469 17.7514 243.191 18.696H243.111V17.3636H241.058V25ZM248.904 14.8182H246.787V25H248.904V14.8182Z" fill="black"/>
</svg>
