<svg width="314" height="78" viewBox="0 0 314 78" fill="none" xmlns="http://www.w3.org/2000/svg">
<path d="M0.84517 16H2.96307V11.4162C2.96307 10.571 3.5 10.0092 4.20597 10.0092C4.90199 10.0092 5.36932 10.4865 5.36932 11.2372V16H7.42259V11.3366C7.42259 10.5462 7.875 10.0092 8.6456 10.0092C9.32173 10.0092 9.82884 10.4318 9.82884 11.282V16H11.9418V10.8643C11.9418 9.20881 10.9574 8.2642 9.53551 8.2642C8.4169 8.2642 7.54688 8.83594 7.23367 9.71094H7.15412C6.91051 8.82599 6.12997 8.2642 5.08097 8.2642C4.05185 8.2642 3.27131 8.81108 2.95312 9.71094H2.86364V8.36364H0.84517V16ZM15.7083 16.1442C16.8368 16.1442 17.5676 15.652 17.9405 14.9411H18.0002V16H20.0087V10.8494C20.0087 9.02983 18.4675 8.2642 16.7672 8.2642C14.9377 8.2642 13.7345 9.1392 13.4412 10.5312L15.4 10.6903C15.5442 10.1832 15.9966 9.81037 16.7573 9.81037C17.4781 9.81037 17.8908 10.1733 17.8908 10.7997V10.8295C17.8908 11.3217 17.3688 11.3864 16.0414 11.5156C14.53 11.6548 13.1727 12.1619 13.1727 13.8672C13.1727 15.3786 14.2516 16.1442 15.7083 16.1442ZM16.3148 14.6825C15.6635 14.6825 15.1962 14.3793 15.1962 13.7976C15.1962 13.201 15.6884 12.9077 16.4341 12.8033C16.8965 12.7386 17.6522 12.6293 17.9057 12.4602V13.2706C17.9057 14.071 17.2445 14.6825 16.3148 14.6825ZM25.0181 16.1491C27.0515 16.1491 28.3292 14.956 28.4286 13.201H26.43C26.3057 14.0163 25.7688 14.4737 25.0429 14.4737C24.0536 14.4737 23.4123 13.6435 23.4123 12.1818C23.4123 10.7401 24.0586 9.91477 25.0429 9.91477C25.8185 9.91477 26.3157 10.4268 26.43 11.1875H28.4286C28.3391 9.42259 27.0017 8.2642 25.0081 8.2642C22.6914 8.2642 21.2596 9.87003 21.2596 12.2116C21.2596 14.5334 22.6665 16.1491 25.0181 16.1491ZM39.0969 10.9091C39.0969 7.57812 37.0287 5.67898 34.3291 5.67898C31.6147 5.67898 29.5614 7.57812 29.5614 10.9091C29.5614 14.2251 31.6147 16.1392 34.3291 16.1392C37.0287 16.1392 39.0969 14.2401 39.0969 10.9091ZM36.9144 10.9091C36.9144 13.0668 35.8902 14.2351 34.3291 14.2351C32.7631 14.2351 31.7439 13.0668 31.7439 10.9091C31.7439 8.75142 32.7631 7.5831 34.3291 7.5831C35.8902 7.5831 36.9144 8.75142 36.9144 10.9091ZM46.131 8.74645H48.1942C48.1644 6.93182 46.6729 5.67898 44.4058 5.67898C42.1736 5.67898 40.5379 6.91193 40.5479 8.76136C40.5429 10.2628 41.6019 11.1229 43.322 11.5355L44.4307 11.8139C45.5394 12.0824 46.1558 12.4006 46.1608 13.0866C46.1558 13.8324 45.4499 14.3395 44.3561 14.3395C43.2375 14.3395 42.4321 13.8224 42.3625 12.8033H40.2794C40.3341 15.0057 41.9101 16.1442 44.381 16.1442C46.8668 16.1442 48.3284 14.956 48.3334 13.0916C48.3284 11.3963 47.0507 10.4964 45.2808 10.0987L44.3661 9.87997C43.4811 9.67614 42.7404 9.34801 42.7553 8.61719C42.7553 7.96094 43.3369 7.47869 44.3909 7.47869C45.42 7.47869 46.0514 7.94602 46.131 8.74645ZM59.1675 10.5412C58.9786 9.13423 57.8451 8.2642 55.9161 8.2642C53.9623 8.2642 52.6746 9.16903 52.6796 10.6406C52.6746 11.7841 53.3955 12.5249 54.887 12.8232L56.2094 13.0866C56.8756 13.2209 57.1789 13.4645 57.1888 13.8473C57.1789 14.2997 56.6867 14.6229 55.9459 14.6229C55.1902 14.6229 54.6881 14.2997 54.5589 13.6783L52.4758 13.7876C52.6746 15.2493 53.9175 16.1491 55.941 16.1491C57.9196 16.1491 59.3366 15.1399 59.3415 13.6335C59.3366 12.5298 58.6157 11.8686 57.1341 11.5653L55.752 11.2869C55.0411 11.1328 54.7776 10.8892 54.7826 10.5213C54.7776 10.0639 55.2946 9.76562 55.9509 9.76562C56.6867 9.76562 57.1242 10.1683 57.2286 10.6605L59.1675 10.5412ZM62.7091 11.5852C62.714 10.6009 63.3156 10.0241 64.1806 10.0241C65.0407 10.0241 65.5478 10.576 65.5429 11.5156V16H67.6608V11.1378C67.6657 9.34801 66.6118 8.2642 65.0208 8.2642C63.8625 8.2642 63.0869 8.81108 62.7389 9.71094H62.6494V5.81818H60.5912V16H62.7091V11.5852ZM72.6938 16.1491C75.0105 16.1491 76.4523 14.5632 76.4523 12.2116C76.4523 9.84517 75.0105 8.2642 72.6938 8.2642C70.377 8.2642 68.9352 9.84517 68.9352 12.2116C68.9352 14.5632 70.377 16.1491 72.6938 16.1491ZM72.7037 14.5085C71.6348 14.5085 71.0879 13.5291 71.0879 12.1967C71.0879 10.8643 71.6348 9.87997 72.7037 9.87997C73.7527 9.87997 74.2996 10.8643 74.2996 12.1967C74.2996 13.5291 73.7527 14.5085 72.7037 14.5085ZM77.7454 16H79.8633V11.6797C79.8633 10.7401 80.5494 10.0938 81.4841 10.0938C81.7774 10.0938 82.1801 10.1435 82.3789 10.2081V8.32883C82.19 8.28409 81.9265 8.25426 81.7128 8.25426C80.8576 8.25426 80.1566 8.75142 79.8782 9.69602H79.7987V8.36364H77.7454V16ZM87.8345 8.36364H86.3978V6.53409H84.2799V8.36364H83.2358V9.95455H84.2799V13.9318C84.2699 15.4283 85.2891 16.169 86.8253 16.1044C87.3722 16.0845 87.76 15.9751 87.9737 15.9055L87.6407 14.3295C87.5362 14.3494 87.3125 14.3991 87.1137 14.3991C86.6911 14.3991 86.3978 14.2401 86.3978 13.6534V9.95455H87.8345V8.36364ZM92.4984 16.1491C94.5318 16.1491 95.8095 14.956 95.9089 13.201H93.9103C93.786 14.0163 93.2491 14.4737 92.5233 14.4737C91.5339 14.4737 90.8926 13.6435 90.8926 12.1818C90.8926 10.7401 91.5389 9.91477 92.5233 9.91477C93.2988 9.91477 93.796 10.4268 93.9103 11.1875H95.9089C95.8194 9.42259 94.4821 8.2642 92.4885 8.2642C90.1717 8.2642 88.7399 9.87003 88.7399 12.2116C88.7399 14.5334 90.1468 16.1491 92.4984 16.1491ZM102.078 12.7486C102.083 13.7727 101.382 14.3097 100.621 14.3097C99.8208 14.3097 99.3038 13.7479 99.2988 12.848V8.36364H97.1809V13.2259C97.1859 15.0107 98.2299 16.0994 99.7661 16.0994C100.915 16.0994 101.74 15.5078 102.083 14.6129H102.162V16H104.196V8.36364H102.078V12.7486ZM109.868 8.36364H108.431V6.53409H106.313V8.36364H105.269V9.95455H106.313V13.9318C106.303 15.4283 107.322 16.169 108.858 16.1044C109.405 16.0845 109.793 15.9751 110.007 15.9055L109.674 14.3295C109.569 14.3494 109.346 14.3991 109.147 14.3991C108.724 14.3991 108.431 14.2401 108.431 13.6534V9.95455H109.868V8.36364Z" fill="black"/>
<rect x="0.5" y="38.5" width="39" height="39" rx="3.5" fill="white" stroke="black"/>
<path d="M13.6155 54.4986H16.8719L21.1624 63H25.3882V61.3196H22.1368L17.8414 52.8182H13.6155V54.4986ZM20.6254 52.8182V54.4986H25.3882V52.8182H20.6254Z" fill="black"/>
<rect x="48.5" y="38.5" width="39" height="39" rx="3.5" fill="white" stroke="black"/>
<path d="M65.0146 63.2237C66.3072 63.2237 67.3512 62.1747 67.3562 60.892V59.9126H68.6538V60.892C68.6488 62.1747 69.6928 63.2237 70.9805 63.2237C72.2681 63.2237 73.3121 62.1747 73.3121 60.892C73.3121 59.5994 72.2681 58.5554 70.9805 58.5504H70.011V57.2578H70.9805C72.2681 57.2628 73.3121 56.2138 73.3121 54.9261C73.3121 53.6385 72.2681 52.5945 70.9805 52.5945C69.6928 52.5945 68.6488 53.6385 68.6538 54.9261V55.8956H67.3562V54.9261C67.3512 53.6385 66.3072 52.5945 65.0146 52.5945C63.7319 52.5945 62.6879 53.6385 62.6879 54.9261C62.6879 56.2138 63.7319 57.2628 65.0146 57.2578H65.9989V58.5504H65.0146C63.7319 58.5554 62.6879 59.5994 62.6879 60.892C62.6879 62.1747 63.7319 63.2237 65.0146 63.2237ZM65.0146 61.8615C64.4826 61.8615 64.0451 61.429 64.0451 60.892C64.0451 60.3501 64.4826 59.9176 65.0146 59.9126H65.9989V60.892C65.994 61.429 65.5565 61.8615 65.0146 61.8615ZM65.0146 55.8956C64.4826 55.9006 64.0451 55.468 64.0451 54.9261C64.0451 54.3892 64.4826 53.9567 65.0146 53.9567C65.5565 53.9567 65.994 54.3892 65.9989 54.9261V55.8956H65.0146ZM70.9805 61.8615C70.4435 61.8615 70.006 61.429 70.011 60.892V59.9126H70.9805C71.5174 59.9176 71.9549 60.3501 71.9549 60.892C71.9549 61.429 71.5174 61.8615 70.9805 61.8615ZM70.011 55.8956V54.9261C70.006 54.3892 70.4435 53.9567 70.9805 53.9567C71.5174 53.9567 71.9549 54.3892 71.9549 54.9261C71.9549 55.468 71.5174 55.9006 70.9805 55.8956H70.011ZM67.3562 58.5504V57.2578H68.6538V58.5504H67.3562Z" fill="black"/>
<rect x="96.5" y="38.5" width="39" height="39" rx="3.5" fill="white" stroke="black"/>
<path d="M117.811 56.1094H119.999C119.72 54.0959 117.945 52.679 115.644 52.679C112.954 52.679 110.881 54.6179 110.881 57.919C110.881 61.1406 112.82 63.1392 115.688 63.1392C118.259 63.1392 120.093 61.5135 120.093 58.8338V57.5511H115.832V59.1719H118.02C117.99 60.4347 117.13 61.2351 115.698 61.2351C114.082 61.2351 113.063 60.027 113.063 57.8991C113.063 55.7812 114.122 54.5831 115.678 54.5831C116.787 54.5831 117.538 55.1548 117.811 56.1094Z" fill="black"/>
<path d="M180.177 16H182.275L184.209 9.34304H184.288L186.227 16H188.325L191.239 5.81818H188.887L187.202 12.9077H187.112L185.258 5.81818H183.244L181.385 12.8928H181.3L179.615 5.81818H177.263L180.177 16ZM192.267 16H194.385V8.36364H192.267V16ZM193.331 7.37926C193.962 7.37926 194.479 6.89702 194.479 6.3054C194.479 5.71875 193.962 5.23651 193.331 5.23651C192.705 5.23651 192.187 5.71875 192.187 6.3054C192.187 6.89702 192.705 7.37926 193.331 7.37926ZM198.115 11.5852C198.12 10.6009 198.707 10.0241 199.562 10.0241C200.412 10.0241 200.924 10.581 200.919 11.5156V16H203.037V11.1378C203.037 9.35795 201.993 8.2642 200.402 8.2642C199.269 8.2642 198.448 8.82102 198.105 9.71094H198.016V8.36364H195.997V16H198.115V11.5852ZM214.132 10.5412C213.943 9.13423 212.81 8.2642 210.881 8.2642C208.927 8.2642 207.639 9.16903 207.644 10.6406C207.639 11.7841 208.36 12.5249 209.852 12.8232L211.174 13.0866C211.84 13.2209 212.144 13.4645 212.154 13.8473C212.144 14.2997 211.652 14.6229 210.911 14.6229C210.155 14.6229 209.653 14.2997 209.524 13.6783L207.441 13.7876C207.639 15.2493 208.882 16.1491 210.906 16.1491C212.885 16.1491 214.301 15.1399 214.306 13.6335C214.301 12.5298 213.581 11.8686 212.099 11.5653L210.717 11.2869C210.006 11.1328 209.742 10.8892 209.747 10.5213C209.742 10.0639 210.26 9.76562 210.916 9.76562C211.652 9.76562 212.089 10.1683 212.193 10.6605L214.132 10.5412ZM217.674 11.5852C217.679 10.6009 218.28 10.0241 219.146 10.0241C220.006 10.0241 220.513 10.576 220.508 11.5156V16H222.626V11.1378C222.631 9.34801 221.577 8.2642 219.986 8.2642C218.827 8.2642 218.052 8.81108 217.704 9.71094H217.614V5.81818H215.556V16H217.674V11.5852ZM227.659 16.1491C229.975 16.1491 231.417 14.5632 231.417 12.2116C231.417 9.84517 229.975 8.2642 227.659 8.2642C225.342 8.2642 223.9 9.84517 223.9 12.2116C223.9 14.5632 225.342 16.1491 227.659 16.1491ZM227.669 14.5085C226.6 14.5085 226.053 13.5291 226.053 12.1967C226.053 10.8643 226.6 9.87997 227.669 9.87997C228.718 9.87997 229.264 10.8643 229.264 12.1967C229.264 13.5291 228.718 14.5085 227.669 14.5085ZM232.71 16H234.828V11.6797C234.828 10.7401 235.514 10.0938 236.449 10.0938C236.742 10.0938 237.145 10.1435 237.344 10.2081V8.32883C237.155 8.28409 236.891 8.25426 236.678 8.25426C235.823 8.25426 235.122 8.75142 234.843 9.69602H234.764V8.36364H232.71V16ZM242.799 8.36364H241.363V6.53409H239.245V8.36364H238.201V9.95455H239.245V13.9318C239.235 15.4283 240.254 16.169 241.79 16.1044C242.337 16.0845 242.725 15.9751 242.939 15.9055L242.606 14.3295C242.501 14.3494 242.277 14.3991 242.079 14.3991C241.656 14.3991 241.363 14.2401 241.363 13.6534V9.95455H242.799V8.36364ZM247.463 16.1491C249.497 16.1491 250.774 14.956 250.874 13.201H248.875C248.751 14.0163 248.214 14.4737 247.488 14.4737C246.499 14.4737 245.857 13.6435 245.857 12.1818C245.857 10.7401 246.504 9.91477 247.488 9.91477C248.264 9.91477 248.761 10.4268 248.875 11.1875H250.874C250.784 9.42259 249.447 8.2642 247.453 8.2642C245.137 8.2642 243.705 9.87003 243.705 12.2116C243.705 14.5334 245.112 16.1491 247.463 16.1491ZM257.043 12.7486C257.048 13.7727 256.347 14.3097 255.586 14.3097C254.786 14.3097 254.269 13.7479 254.264 12.848V8.36364H252.146V13.2259C252.151 15.0107 253.195 16.0994 254.731 16.0994C255.879 16.0994 256.705 15.5078 257.048 14.6129H257.127V16H259.161V8.36364H257.043V12.7486ZM264.833 8.36364H263.396V6.53409H261.278V8.36364H260.234V9.95455H261.278V13.9318C261.268 15.4283 262.287 16.169 263.823 16.1044C264.37 16.0845 264.758 15.9751 264.972 15.9055L264.639 14.3295C264.534 14.3494 264.311 14.3991 264.112 14.3991C263.689 14.3991 263.396 14.2401 263.396 13.6534V9.95455H264.833V8.36364Z" fill="black"/>
<rect x="177.5" y="38.5" width="39" height="39" rx="3.5" fill="white" stroke="black"/>
<path d="M194.113 56.3828C193.829 54.0312 192.05 52.679 189.693 52.679C187.003 52.679 184.95 54.5781 184.95 57.9091C184.95 61.2301 186.969 63.1392 189.693 63.1392C192.303 63.1392 193.879 61.4041 194.113 59.5298L191.935 59.5199C191.731 60.6087 190.876 61.2351 189.728 61.2351C188.182 61.2351 187.133 60.0866 187.133 57.9091C187.133 55.7912 188.167 54.5831 189.743 54.5831C190.921 54.5831 191.771 55.2642 191.935 56.3828H194.113ZM199.678 55.3636H198.242V53.5341H196.124V55.3636H195.08V56.9545H196.124V60.9318C196.114 62.4283 197.133 63.169 198.669 63.1044C199.216 63.0845 199.604 62.9751 199.818 62.9055L199.485 61.3295C199.38 61.3494 199.156 61.3991 198.958 61.3991C198.535 61.3991 198.242 61.2401 198.242 60.6534V56.9545H199.678V55.3636ZM201.058 63H203.176V58.6797C203.176 57.7401 203.862 57.0938 204.797 57.0938C205.09 57.0938 205.493 57.1435 205.692 57.2081V55.3288C205.503 55.2841 205.239 55.2543 205.025 55.2543C204.17 55.2543 203.469 55.7514 203.191 56.696H203.111V55.3636H201.058V63ZM208.904 52.8182H206.787V63H208.904V52.8182Z" fill="black"/>
<rect x="225.5" y="38.5" width="39" height="39" rx="3.5" fill="white" stroke="black"/>
<path d="M237.776 63L238.531 60.6783H242.205L242.961 63H245.268L241.758 52.8182H238.984L235.469 63H237.776ZM239.078 58.9979L240.331 55.1449H240.411L241.663 58.9979H239.078ZM248.571 52.8182H246.454V63H248.571V52.8182ZM254.33 55.3636H252.893V53.5341H250.775V55.3636H249.731V56.9545H250.775V60.9318C250.765 62.4283 251.784 63.169 253.321 63.1044C253.867 63.0845 254.255 62.9751 254.469 62.9055L254.136 61.3295C254.032 61.3494 253.808 61.3991 253.609 61.3991C253.186 61.3991 252.893 61.2401 252.893 60.6534V56.9545H254.33V55.3636Z" fill="black"/>
<rect x="273.5" y="38.5" width="39" height="39" rx="3.5" fill="white" stroke="black"/>
<path d="M294.811 56.1094H296.999C296.72 54.0959 294.945 52.679 292.644 52.679C289.954 52.679 287.881 54.6179 287.881 57.919C287.881 61.1406 289.82 63.1392 292.688 63.1392C295.259 63.1392 297.093 61.5135 297.093 58.8338V57.5511H292.832V59.1719H295.02C294.99 60.4347 294.13 61.2351 292.698 61.2351C291.082 61.2351 290.063 60.027 290.063 57.8991C290.063 55.7812 291.122 54.5831 292.678 54.5831C293.787 54.5831 294.538 55.1548 294.811 56.1094Z" fill="black"/>
<rect x="156" y="6" width="1" height="72" fill="#E5E5E5"/>
</svg>
